<svg xmlns="http://www.w3.org/2000/svg" data-padding="1800" viewBox="0 18700 2560 5100" fill="none"><defs><filter id="b476-2462" x="-200%" y="-200%" width="500%" height="500%" color-interpolation-filters="sRGB"><feGaussianBlur stdDeviation="30.388830184936523"/></filter><linearGradient id="p476-2462-0" x1="0" y1="0.5" x2="1" y2="0.5" gradientUnits="objectBoundingBox" gradientTransform="matrix(0.9999999701976785 0.9999999701976785 -0.9999999701976785 0.3185975166163199 0.49999998509883903 -0.15929875830816018)"><stop offset="0" stop-color="rgb(45,171,231)" stop-opacity="1"/><stop offset="1" stop-color="rgb(247,0,255)" stop-opacity="1"/></linearGradient><filter id="b476-2468" x="-200%" y="-200%" width="500%" height="500%" color-interpolation-filters="sRGB"><feGaussianBlur stdDeviation="30.388830184936523"/></filter><linearGradient id="p476-2468-0" x1="0" y1="0.5" x2="1" y2="0.5" gradientUnits="objectBoundingBox" gradientTransform="matrix(0.9999999701976785 0.9999999701976785 -0.9999999701976785 0.3185975166163199 0.49999998509883903 -0.15929875830816018)"><stop offset="0" stop-color="rgb(45,171,231)" stop-opacity="1"/><stop offset="1" stop-color="rgb(247,0,255)" stop-opacity="1"/></linearGradient><filter id="b586-7458" x="-200%" y="-200%" width="500%" height="500%" color-interpolation-filters="sRGB"><feGaussianBlur stdDeviation="67.30000305175781"/></filter><radialGradient id="p586-7458-0" cx="0.5" cy="0.5" r="0.5" gradientUnits="objectBoundingBox" gradientTransform="matrix(2.8064786118081954e-16 0.9570637204444707 -0.9570637204444707 -2.060354216003672e-15 0.9785318602222354 0.02146814512577704)"><stop offset="0" stop-color="rgb(27,118,221)" stop-opacity="1"/><stop offset="0.5000375509262085" stop-color="rgb(27,118,221)" stop-opacity="0.42784637212753296"/><stop offset="1" stop-color="rgb(27,118,221)" stop-opacity="0"/></radialGradient><filter id="b586-7459" x="-200%" y="-200%" width="500%" height="500%" color-interpolation-filters="sRGB"><feGaussianBlur stdDeviation="115"/></filter></defs><g transform="matrix(-0.9999824166297913 -0.005919696297496557 0.022246070206165314 -0.9997524619102478 990.060546875 22051.7265625)" opacity="1" filter="url(#b586-7458)"><path d="M983.929 448.153 C983.929 695.661 763.669 896.305 491.965 896.305 C220.26 896.305 0 695.661 0 448.153 C0 200.645 220.26 0 491.965 0 C763.669 0 983.929 200.645 983.929 448.153 Z" fill="url(#p586-7458-0)" fill-opacity="0.5199999809265137"/></g><g transform="matrix(-0.9997166991233826 0.023805100470781326 -0.00973113439977169 -0.9999526739120483 1363.849609375 21748.984375)" opacity="1" filter="url(#b586-7459)"><path d="M744.615 356.768 C744.615 553.806 577.927 713.537 372.308 713.537 C166.688 713.537 0 553.806 0 356.768 C0 159.731 166.688 0 372.308 0 C577.927 0 744.615 159.731 744.615 356.768 Z" fill="rgb(93,59,184)" fill-opacity="0.44999998807907104"/></g></svg>
